# xmcd
#
# Track frame offsets:
#	150
#	12692
#	22538
#	33896
#	47351
#	59106
#	69837
#	83849
#	94879
#	105338
#	116891
#	136051
#	148913
#	163496
#	178344
#	191388
#	206668
#	219837
#	231048
#	242378
#	255693
#
# Disc length: 3559 seconds
# Revision: 0
# Processed by: cddbd v1.5.2PL0 Copyright (c) Steve Scherf et al.
# Submitted via: dBpowerAMP V12.0
#
DISCID=200de515
DTITLE=Marty Robbins - Today/Don't Let Me Touch You
DYEAR=2016
DGENRE=Country
TTITLE0=Early Morning Sunshine
TTITLE1=Late Great Lover
TTITLE2=Im Not Blaming You
TTITLE3=Another Day Has Gone By
TTITLE4=Thanks But No Thanks
TTITLE5=Quiet Shadows
TTITLE6=Too Many Places
TTITLE7=You Say Its Over
TTITLE8=Put A Little Rainbow
TTITLE9=Seventeen Years
TTITLE10=The Chair
TTITLE11=Dont Let Me Touch You
TTITLE12=Theres No More You And Me
TTITLE13=To Get To You
TTITLE14=The Way I Loved You Best
TTITLE15=Try A Little Tenderness
TTITLE16=Return To Me
TTITLE17=Harbor Lights
TTITLE18=More Than Anything I Miss You
TTITLE19=A Tree In The Meadow
TTITLE20=Tomorrow, Tomorrow, Tomorrow
EXTD=
EXTT0=
EXTT1=
EXTT2=
EXTT3=
EXTT4=
EXTT5=
EXTT6=
EXTT7=
EXTT8=
EXTT9=
EXTT10=
EXTT11=
EXTT12=
EXTT13=
EXTT14=
EXTT15=
EXTT16=
EXTT17=
EXTT18=
EXTT19=
EXTT20=
PLAYORDER=
